solid OpenSCAD_Model
  facet normal 0.866025 0.5 0
    outer loop
      vertex 50 0 50
      vertex 25 43.3013 0
      vertex 25 43.3013 50
    endloop
  endfacet
  facet normal 0.866025 0.5 0
    outer loop
      vertex 25 43.3013 0
      vertex 50 0 50
      vertex 50 0 0
    endloop
  endfacet
  facet normal -0.866025 0.5 0
    outer loop
      vertex -50 0 0
      vertex -25 43.3013 50
      vertex -25 43.3013 0
    endloop
  endfacet
  facet normal -0.866025 0.5 0
    outer loop
      vertex -25 43.3013 50
      vertex -50 0 0
      vertex -50 0 50
    endloop
  endfacet
  facet normal 0 1 -0
    outer loop
      vertex 25 43.3013 0
      vertex -25 43.3013 50
      vertex 25 43.3013 50
    endloop
  endfacet
  facet normal 0 1 0
    outer loop
      vertex -25 43.3013 50
      vertex 25 43.3013 0
      vertex -25 43.3013 0
    endloop
  endfacet
  facet normal 0 0 1
    outer loop
      vertex 25 43.3013 50
      vertex 44.2265 0 50
      vertex 50 0 50
    endloop
  endfacet
  facet normal 0 0 1
    outer loop
      vertex 25 43.3013 50
      vertex 22.1132 38.3013 50
      vertex 44.2265 0 50
    endloop
  endfacet
  facet normal 0 0 1
    outer loop
      vertex 25 43.3013 50
      vertex -22.1132 38.3013 50
      vertex 22.1132 38.3013 50
    endloop
  endfacet
  facet normal -0 0 1
    outer loop
      vertex -25 43.3013 50
      vertex -22.1132 38.3013 50
      vertex 25 43.3013 50
    endloop
  endfacet
  facet normal 0 0 1
    outer loop
      vertex -25 43.3013 50
      vertex -44.2265 0 50
      vertex -22.1132 38.3013 50
    endloop
  endfacet
  facet normal 0 -0 1
    outer loop
      vertex -44.2265 0 50
      vertex -25 43.3013 50
      vertex -50 0 50
    endloop
  endfacet
  facet normal -0 0 1
    outer loop
      vertex 44.2265 0 50
      vertex 25 -43.3013 50
      vertex 50 0 50
    endloop
  endfacet
  facet normal -0 0 1
    outer loop
      vertex 22.1132 -38.3013 50
      vertex 25 -43.3013 50
      vertex 44.2265 0 50
    endloop
  endfacet
  facet normal -0 0 1
    outer loop
      vertex -22.1132 -38.3013 50
      vertex 25 -43.3013 50
      vertex 22.1132 -38.3013 50
    endloop
  endfacet
  facet normal 0 0 1
    outer loop
      vertex -22.1132 -38.3013 50
      vertex -25 -43.3013 50
      vertex 25 -43.3013 50
    endloop
  endfacet
  facet normal 0 0 1
    outer loop
      vertex -44.2265 0 50
      vertex -25 -43.3013 50
      vertex -22.1132 -38.3013 50
    endloop
  endfacet
  facet normal 0 0 1
    outer loop
      vertex -25 -43.3013 50
      vertex -44.2265 0 50
      vertex -50 0 50
    endloop
  endfacet
  facet normal 0.866025 -0.5 0
    outer loop
      vertex 25 -43.3013 50
      vertex 50 0 0
      vertex 50 0 50
    endloop
  endfacet
  facet normal 0.866025 -0.5 0
    outer loop
      vertex 50 0 0
      vertex 25 -43.3013 50
      vertex 25 -43.3013 0
    endloop
  endfacet
  facet normal 0 0 -1
    outer loop
      vertex 25 -43.3013 0
      vertex 25 43.3013 0
      vertex 50 0 0
    endloop
  endfacet
  facet normal 0 0 -1
    outer loop
      vertex -25 -43.3013 0
      vertex 25 43.3013 0
      vertex 25 -43.3013 0
    endloop
  endfacet
  facet normal 0 0 -1
    outer loop
      vertex -25 -43.3013 0
      vertex -25 43.3013 0
      vertex 25 43.3013 0
    endloop
  endfacet
  facet normal 0 -0 -1
    outer loop
      vertex -25 43.3013 0
      vertex -25 -43.3013 0
      vertex -50 0 0
    endloop
  endfacet
  facet normal 0 -1 0
    outer loop
      vertex -25 -43.3013 0
      vertex 25 -43.3013 50
      vertex -25 -43.3013 50
    endloop
  endfacet
  facet normal 0 -1 -0
    outer loop
      vertex 25 -43.3013 50
      vertex -25 -43.3013 0
      vertex 25 -43.3013 0
    endloop
  endfacet
  facet normal -0.866025 -0.5 0
    outer loop
      vertex -25 -43.3013 0
      vertex -50 0 50
      vertex -50 0 0
    endloop
  endfacet
  facet normal -0.866025 -0.5 0
    outer loop
      vertex -50 0 50
      vertex -25 -43.3013 0
      vertex -25 -43.3013 50
    endloop
  endfacet
  facet normal -0.866025 -0.5 0
    outer loop
      vertex 44.2265 0 10
      vertex 22.1132 38.3013 50
      vertex 22.1132 38.3013 10
    endloop
  endfacet
  facet normal -0.866025 -0.5 0
    outer loop
      vertex 22.1132 38.3013 50
      vertex 44.2265 0 10
      vertex 44.2265 0 50
    endloop
  endfacet
  facet normal 0.866025 -0.5 0
    outer loop
      vertex -44.2265 0 50
      vertex -22.1132 38.3013 10
      vertex -22.1132 38.3013 50
    endloop
  endfacet
  facet normal 0.866025 -0.5 0
    outer loop
      vertex -22.1132 38.3013 10
      vertex -44.2265 0 50
      vertex -44.2265 0 10
    endloop
  endfacet
  facet normal 0 -1 0
    outer loop
      vertex -22.1132 38.3013 10
      vertex 22.1132 38.3013 50
      vertex -22.1132 38.3013 50
    endloop
  endfacet
  facet normal 0 -1 -0
    outer loop
      vertex 22.1132 38.3013 50
      vertex -22.1132 38.3013 10
      vertex 22.1132 38.3013 10
    endloop
  endfacet
  facet normal 0 0 1
    outer loop
      vertex 22.1132 38.3013 10
      vertex 22.1132 -38.3013 10
      vertex 44.2265 0 10
    endloop
  endfacet
  facet normal -0 0 1
    outer loop
      vertex -22.1132 38.3013 10
      vertex 22.1132 -38.3013 10
      vertex 22.1132 38.3013 10
    endloop
  endfacet
  facet normal 0 0 1
    outer loop
      vertex -22.1132 38.3013 10
      vertex -22.1132 -38.3013 10
      vertex 22.1132 -38.3013 10
    endloop
  endfacet
  facet normal 0 -0 1
    outer loop
      vertex -22.1132 -38.3013 10
      vertex -22.1132 38.3013 10
      vertex -44.2265 0 10
    endloop
  endfacet
  facet normal 0 1 -0
    outer loop
      vertex 22.1132 -38.3013 10
      vertex -22.1132 -38.3013 50
      vertex 22.1132 -38.3013 50
    endloop
  endfacet
  facet normal 0 1 0
    outer loop
      vertex -22.1132 -38.3013 50
      vertex 22.1132 -38.3013 10
      vertex -22.1132 -38.3013 10
    endloop
  endfacet
  facet normal 0.866025 0.5 0
    outer loop
      vertex -22.1132 -38.3013 50
      vertex -44.2265 0 10
      vertex -44.2265 0 50
    endloop
  endfacet
  facet normal 0.866025 0.5 0
    outer loop
      vertex -44.2265 0 10
      vertex -22.1132 -38.3013 50
      vertex -22.1132 -38.3013 10
    endloop
  endfacet
  facet normal -0.866025 0.5 0
    outer loop
      vertex 22.1132 -38.3013 10
      vertex 44.2265 0 50
      vertex 44.2265 0 10
    endloop
  endfacet
  facet normal -0.866025 0.5 0
    outer loop
      vertex 44.2265 0 50
      vertex 22.1132 -38.3013 10
      vertex 22.1132 -38.3013 50
    endloop
  endfacet
endsolid OpenSCAD_Model
